HIERARCHY
ROOT Hips
{
	OFFSET 0.00000 0.00000 0.00000
	CHANNELS 6 Xposition Yposition Zposition Zrotation Yrotation Xrotation 
	JOINT LHipJoint
	{
		OFFSET 0 0 0
		CHANNELS 3 Zrotation Yrotation Xrotation
		JOINT LeftUpLeg
		{
			OFFSET 1.53139 -1.83434 0.76626
			CHANNELS 3 Zrotation Yrotation Xrotation
			JOINT LeftLeg
			{
				OFFSET 2.56112 -7.03663 0.00000
				CHANNELS 3 Zrotation Yrotation Xrotation
				JOINT LeftFoot
				{
					OFFSET 2.59983 -7.14299 0.00000
					CHANNELS 3 Zrotation Yrotation Xrotation
					JOINT LeftToeBase
					{
						OFFSET 0.13742 -0.37757 2.00054
						CHANNELS 3 Zrotation Yrotation Xrotation
						End Site
						{
							OFFSET 0.00000 -0.00000 1.02897
						}
					}
				}
			}
		}
	}
	JOINT RHipJoint
	{
		OFFSET 0 0 0
		CHANNELS 3 Zrotation Yrotation Xrotation
		JOINT RightUpLeg
		{
			OFFSET -1.40122 -1.83435 0.76627
			CHANNELS 3 Zrotation Yrotation Xrotation
			JOINT RightLeg
			{
				OFFSET -2.54052 -6.98003 0.00000
				CHANNELS 3 Zrotation Yrotation Xrotation
				JOINT RightFoot
				{
					OFFSET -2.63179 -7.23079 0.00000
					CHANNELS 3 Zrotation Yrotation Xrotation
					JOINT RightToeBase
					{
						OFFSET -0.24131 -0.66299 2.03908
						CHANNELS 3 Zrotation Yrotation Xrotation
						End Site
						{
							OFFSET -0.00000 -0.00000 1.07391
						}
					}
				}
			}
		}
	}
	JOINT LowerBack
	{
		OFFSET 0 0 0
		CHANNELS 3 Zrotation Yrotation Xrotation
		JOINT Spine
		{
			OFFSET 0.01174 2.10302 -0.29778
			CHANNELS 3 Zrotation Yrotation Xrotation
			JOINT Spine1
			{
				OFFSET 0.00772 2.13227 -0.01247
				CHANNELS 3 Zrotation Yrotation Xrotation
				JOINT Neck
				{
					OFFSET 0 0 0
					CHANNELS 3 Zrotation Yrotation Xrotation
					JOINT Neck1
					{
						OFFSET -0.09219 1.60848 0.31481
						CHANNELS 3 Zrotation Yrotation Xrotation
						JOINT Head
						{
							OFFSET 0.13974 1.65456 -0.31134
							CHANNELS 3 Zrotation Yrotation Xrotation
							End Site
							{
								OFFSET 0.04742 1.69515 -0.14578
							}
						}
					}
				}
				JOINT LeftShoulder
				{
					OFFSET 0 0 0
					CHANNELS 3 Zrotation Yrotation Xrotation
					JOINT LeftArm
					{
						OFFSET 3.24909 1.02882 -0.23993
						CHANNELS 3 Zrotation Yrotation Xrotation
						JOINT LeftForeArm
						{
							OFFSET 5.32955 -0.00000 -0.00000
							CHANNELS 3 Zrotation Yrotation Xrotation
							JOINT LeftHand
							{
								OFFSET 3.69232 -0.00000 -0.00000
								CHANNELS 3 Zrotation Yrotation Xrotation
								JOINT LeftFingerBase
								{
									OFFSET 0 0 0
									CHANNELS 3 Zrotation Yrotation Xrotation
									JOINT LeftHandIndex1
									{
										OFFSET 0.53660 -0.00000 -0.00000
										CHANNELS 3 Zrotation Yrotation Xrotation
										End Site
										{
											OFFSET 0.43262 -0.00000 -0.00000
										}
									}
								}
								JOINT LThumb
								{
									OFFSET 0 0 0
									CHANNELS 3 Zrotation Yrotation Xrotation
									End Site
									{
										OFFSET 0.43922 -0.00000 0.43922
									}
								}
							}
						}
					}
				}
				JOINT RightShoulder
				{
					OFFSET 0 0 0
					CHANNELS 3 Zrotation Yrotation Xrotation
					JOINT RightArm
					{
						OFFSET -3.21387 0.93002 -0.34594
						CHANNELS 3 Zrotation Yrotation Xrotation
						JOINT RightForeArm
						{
							OFFSET -5.23431 -0.00000 0.00000
							CHANNELS 3 Zrotation Yrotation Xrotation
							JOINT RightHand
							{
								OFFSET -3.55301 -0.00000 -0.00000
								CHANNELS 3 Zrotation Yrotation Xrotation
								JOINT RightFingerBase
								{
									OFFSET 0 0 0
									CHANNELS 3 Zrotation Yrotation Xrotation
									JOINT RightHandIndex1
									{
										OFFSET -0.77252 -0.00000 -0.00000
										CHANNELS 3 Zrotation Yrotation Xrotation
										End Site
										{
											OFFSET -0.62283 -0.00000 -0.00000
										}
									}
								}
								JOINT RThumb
								{
									OFFSET 0 0 0
									CHANNELS 3 Zrotation Yrotation Xrotation
									End Site
									{
										OFFSET -0.63234 -0.00000 0.63234
									}
								}
							}
						}
					}
				}
			}
		}
	}
}
MOTION
Frames: 11
Frame Time: .0083333
-10.6612 18.0100 14.7027 187.2620 -258.0580 192.1150 0.0000 0.0000 0.0000 -25.3877 -1.2234 -11.4409 1.0295 6.4541 18.1079 0.2488 -0.6258 -9.2196 0.1728 2.6780 7.3836 0.0000 0.0000 0.0000 17.8253 -14.7031 -12.7349 -5.2601 -13.6709 41.9348 1.4549 -22.1164 -16.7098 -0.7162 -5.4083 15.0767 0.3269 2.2855 10.0732 -0.0235 3.0943 0.5259 -0.6500 1.5264 -5.0783 -10.9870 -3.3202 -17.6042 4.0703 -1.0878 39.3831 3.7732 -1.0636 17.6882 0.0000 -0.0000 0.0000 -88.7753 7.6402 5.5808 11.5223 -19.0844 -1.9433 -0.0000 -0.0000 14.6369 19.3875 25.9794 8.7634 -7.1250 0.0000 -0.0000 -11.5453 56.9255 -3.4050 0.0000 -0.0000 0.0000 87.4171 -5.5206 14.7127 -19.7305 30.3162 -5.3946 0.0000 0.0000 1.5605 -22.4443 6.5506 -2.6980 7.1250 -0.0000 -0.0000 3.1682 -22.9005 1.6882
-10.5779 18.0072 14.6847 188.3760 -258.5030 193.0760 0.0000 0.0000 0.0000 -25.7561 -0.4241 -10.9417 0.9576 6.2313 17.4570 0.2460 -1.3984 -8.9818 0.1501 2.4966 6.8801 0.0000 0.0000 0.0000 17.3678 -14.3574 -13.4010 -5.7214 -14.1528 43.8531 1.6004 -22.4777 -14.9617 -0.7569 -5.5565 15.5029 0.1250 2.3225 10.1077 -0.0548 3.1191 0.5231 -0.5747 1.5427 -5.1093 -10.8808 -3.3547 -17.5719 4.0518 -1.1661 39.4041 3.7325 -1.0781 17.6981 0.0000 -0.0000 0.0000 -88.9403 7.7741 5.8099 11.6099 -19.2170 -1.9720 -0.0000 -0.0000 14.8678 20.1129 26.1753 9.1763 -7.1250 0.0000 -0.0000 -10.8768 57.2775 -3.2973 0.0000 -0.0000 0.0000 87.5507 -5.4716 14.3379 -19.7305 30.3163 -5.3947 0.0000 0.0000 1.4048 -23.1485 6.1463 -2.6209 7.1250 -0.0000 -0.0000 2.6444 -23.3015 1.3841
-10.4965 18.0029 14.6664 189.5340 -258.9740 194.0730 0.0000 0.0000 0.0000 -26.0645 0.2474 -10.3654 0.8834 5.9917 16.7604 0.2353 -2.1711 -8.6667 0.1244 2.2738 6.2631 0.0000 0.0000 0.0000 16.9383 -14.0200 -14.1019 -6.2092 -14.6281 45.8157 1.6582 -22.4270 -12.9523 -0.7724 -5.6118 15.6621 -0.0521 2.3510 10.1722 -0.0748 3.1361 0.5504 -0.5011 1.5552 -5.1251 -10.7022 -3.4012 -17.6234 3.9456 -1.2498 39.4005 3.6356 -1.0972 17.7145 -0.0000 -0.0000 0.0000 -89.1135 7.8064 6.0891 11.6634 -19.2979 -1.9896 -0.0000 -0.0000 15.0550 21.6914 25.8937 9.8544 -7.1250 0.0000 -0.0000 -9.0543 57.3342 -2.7505 -0.0000 -0.0000 0.0000 87.6079 -5.3572 14.0716 -19.6719 30.2450 -5.3651 0.0000 0.0000 1.4848 -23.3382 5.8974 -2.5383 7.1250 -0.0000 -0.0000 2.5010 -23.5622 1.2939
-10.4159 17.9964 14.6501 191.3060 -259.4110 195.6870 0.0000 0.0000 0.0000 -26.4509 0.8374 -9.7601 0.8131 5.7541 16.0725 0.2183 -2.9005 -8.3012 0.0829 1.8572 5.1113 0.0000 0.0000 0.0000 16.4454 -13.7077 -14.8707 -6.7073 -15.0803 47.7583 1.6093 -22.0383 -12.2240 -1.2185 -7.0017 19.7204 -0.3854 2.3569 10.2143 -0.1062 3.1045 0.5773 -0.3441 1.5472 -5.1366 -10.6112 -3.4150 -17.6129 4.0195 -1.3434 39.3133 3.6317 -1.1074 17.6691 0.0000 0.0000 0.0000 -89.2539 7.9375 6.9118 11.8214 -19.5362 -2.0422 -0.0000 -0.0000 14.7367 22.0274 25.4651 9.8681 -7.1250 0.0000 -0.0000 -8.4968 56.9685 -2.5042 0.0000 0.0000 0.0000 87.6639 -5.2478 13.8180 -19.6089 30.1683 -5.3334 0.0000 0.0000 1.7215 -23.4167 5.7848 -2.4995 7.1250 -0.0000 -0.0000 2.4414 -23.6808 1.2564
-10.3358 17.9893 14.6341 194.1340 -259.7870 198.3400 0.0000 0.0000 0.0000 -27.0066 1.4661 -9.1773 0.7458 5.5165 15.3877 0.1986 -3.6697 -7.9499 0.0716 1.7259 4.7488 0.0000 0.0000 0.0000 15.7685 -13.4242 -15.6384 -7.2003 -15.4982 49.6277 1.4779 -21.1513 -11.5231 -1.4669 -7.6540 21.6681 -0.8770 2.3542 10.2712 -0.1906 3.0402 0.5976 -0.1494 1.5262 -5.1683 -10.6392 -3.4264 -17.5902 4.1867 -1.4249 39.2491 3.6963 -1.1180 17.6360 0.0000 -0.0000 0.0000 -89.3443 8.1439 7.8234 12.0708 -19.9107 -2.1263 -0.0000 -0.0000 14.1987 21.7004 25.2846 9.6466 -7.1250 0.0000 -0.0000 -8.7643 56.7136 -2.5298 0.0000 -0.0000 0.0000 87.7195 -5.1249 13.5660 -19.5400 30.0841 -5.2988 0.0000 0.0000 1.8363 -23.3346 5.7488 -2.4742 7.1250 -0.0000 -0.0000 2.5020 -23.7238 1.2851
-10.2570 17.9788 14.6181 196.7340 -260.2890 200.7520 0.0000 0.0000 0.0000 -27.4130 1.9953 -8.5725 0.6844 5.2891 14.7349 0.1745 -4.4755 -7.5928 0.0678 1.6801 4.6223 0.0000 0.0000 0.0000 15.1990 -13.0926 -16.2535 -7.6577 -15.8616 51.3203 1.2493 -19.5299 -10.5196 -1.2527 -7.0957 19.9991 -1.2015 2.2675 10.4129 -0.2336 2.8835 0.5871 0.0041 1.4562 -5.2713 -10.6516 -3.4037 -17.4811 4.1376 -1.3842 39.1133 3.6758 -1.1059 17.5265 0.0000 -0.0000 0.0000 -89.4446 8.4164 8.6298 12.3248 -20.2900 -2.2136 -0.0000 -0.0000 13.7585 21.8084 25.2485 9.6858 -7.1250 0.0000 -0.0000 -8.6331 56.6996 -2.4886 0.0000 -0.0000 0.0000 87.6453 -5.1019 13.6977 -19.5225 30.0627 -5.2900 0.0000 0.0000 1.7610 -23.2323 5.6606 -2.4245 7.1250 -0.0000 -0.0000 2.5769 -23.8243 1.3177
-10.1809 17.9645 14.6042 199.4360 -260.8410 203.2730 0.0000 0.0000 0.0000 -27.7422 2.1906 -7.9178 0.6357 5.1011 14.1972 0.1545 -5.0251 -7.3246 0.0844 1.8735 5.1563 0.0000 0.0000 0.0000 14.6910 -12.6419 -16.7908 -8.0791 -16.1771 52.8470 0.9847 -17.5210 -9.9356 -0.9847 -6.3162 17.7045 -1.4722 2.1678 10.5632 -0.2589 2.7160 0.5890 0.1485 1.3803 -5.3628 -10.6939 -3.4136 -17.3814 4.0655 -1.3813 38.9073 3.6387 -1.1168 17.3864 0.0000 0.0000 0.0000 -89.4995 8.6368 9.5841 12.5851 -20.6763 -2.3047 -0.0000 -0.0000 13.1379 22.0302 25.3185 9.8175 -7.1250 0.0000 -0.0000 -8.4281 56.8188 -2.4532 0.0000 0.0000 0.0000 87.6144 -5.0356 13.7805 -19.5004 30.0357 -5.2790 0.0000 0.0000 1.7790 -23.1446 5.6317 -2.4020 7.1250 -0.0000 -0.0000 2.6418 -23.8597 1.3488
-10.1013 17.9571 14.5929 202.2720 -261.2640 205.9290 0.0000 0.0000 0.0000 -28.0559 2.3516 -7.2587 0.5980 4.9504 13.7670 0.1394 -5.5228 -7.1742 0.2147 2.9830 8.2313 0.0000 0.0000 0.0000 14.1670 -12.0675 -17.2885 -8.4632 -16.4496 54.2145 0.7266 -15.3267 -9.6081 -0.7494 -5.5293 15.4245 -1.7653 2.1313 10.6477 -0.3102 2.6300 0.6360 0.2702 1.3449 -5.3702 -10.7568 -3.4594 -17.3968 4.1551 -1.4723 38.7969 3.6685 -1.1485 17.3408 0.0000 -0.0000 0.0000 -89.4848 8.6992 10.6731 12.8305 -21.0384 -2.3921 -0.0000 -0.0000 12.4080 21.2101 25.5369 9.4974 -7.1250 0.0000 -0.0000 -9.4011 56.8665 -2.7506 0.0000 -0.0000 0.0000 87.7150 -4.9348 13.6047 -19.4842 30.0159 -5.2709 0.0000 0.0000 2.0336 -23.2134 5.5738 -2.3853 7.1250 -0.0000 -0.0000 2.5901 -23.9195 1.3188
-10.0238 17.9500 14.5812 206.9620 -261.5150 210.5330 0.0000 0.0000 0.0000 -28.6546 2.4273 -6.7368 0.5704 4.8370 13.4441 0.1175 -6.1133 -6.9573 0.3568 3.8373 10.6194 0.0000 0.0000 0.0000 13.3619 -11.5339 -17.9501 -8.8239 -16.6931 55.4791 0.4843 -12.8479 -8.9983 -0.4899 -4.4876 12.4528 -2.2896 2.1032 10.6683 -0.4893 2.5208 0.6316 0.3929 1.3025 -5.3988 -10.6146 -3.4426 -17.5260 4.2532 -1.5116 38.9089 3.6889 -1.1293 17.4361 -0.0000 0.0000 0.0000 -89.3666 8.8017 11.9572 13.1151 -21.4557 -2.4952 -0.0000 -0.0000 11.7205 19.3804 25.7626 8.6929 -7.1250 0.0000 -0.0000 -11.4438 56.7065 -3.3137 -0.0000 0.0000 0.0000 87.8571 -4.8882 13.5989 -19.4961 30.0305 -5.2768 0.0000 0.0000 2.1607 -23.4199 5.6274 -2.4321 7.1250 -0.0000 -0.0000 2.4372 -23.8517 1.2446
-9.9502 17.9329 14.5653 213.1410 -261.5970 216.7480 0.0000 0.0000 0.0000 -29.5146 2.4245 -6.6109 0.5806 4.8792 13.5643 0.0997 -6.7646 -6.8892 0.2958 3.4974 9.6668 0.0000 0.0000 0.0000 12.3202 -10.9850 -18.8055 -9.1469 -16.9013 56.5968 0.2678 -10.0640 -8.2180 -0.2718 -3.3538 9.2653 -2.9893 2.0701 10.5651 -0.7334 2.3855 0.6176 0.5545 1.2509 -5.3707 -10.4416 -3.3824 -17.7087 4.4070 -1.5086 39.0723 3.7419 -1.0807 17.5687 0.0000 0.0000 0.0000 -89.2583 8.8307 13.1145 13.3870 -21.8516 -2.5956 -0.0000 -0.0000 11.3576 18.3401 25.6921 8.1782 -7.1250 0.0000 -0.0000 -12.4964 56.4186 -3.5374 0.0000 0.0000 0.0000 87.9059 -4.8545 13.8586 -19.5641 30.1136 -5.3109 0.0000 0.0000 2.1179 -23.3981 5.7060 -2.4634 7.1250 -0.0000 -0.0000 2.4544 -23.7674 1.2582
-9.8748 17.9171 14.5503 217.3840 -261.7600 220.9320 0.0000 0.0000 0.0000 -29.9686 2.3360 -6.3126 0.5911 4.9225 13.6876 0.0847 -7.2191 -6.8217 0.4013 4.0670 11.2652 0.0000 0.0000 0.0000 11.7104 -10.2405 -19.5263 -9.4481 -17.0876 57.6274 0.1085 -7.4639 -7.6895 -0.1788 -2.7237 7.5103 -3.3984 2.0678 10.5879 -0.8119 2.3297 0.6080 0.7092 1.2335 -5.4050 -10.6212 -3.4027 -17.6481 4.6719 -1.5830 39.0394 3.8821 -1.0970 17.5485 0.0000 -0.0000 0.0000 -89.2735 8.7664 13.9136 13.5359 -22.0674 -2.6513 -0.0000 -0.0000 11.3590 18.2546 25.3345 8.0336 -7.1250 0.0000 -0.0000 -12.4051 56.0449 -3.3981 0.0000 -0.0000 0.0000 87.8514 -4.8755 13.9572 -19.6146 30.1752 -5.3363 0.0000 0.0000 2.2021 -23.2484 5.5848 -2.3940 7.1250 -0.0000 -0.0000 2.5642 -23.9059 1.3064
